<svg xmlns="http://www.w3.org/2000/svg" viewBox="0 0 512 512">
  
  <defs>
    <linearGradient id="aiRed" x1="0" y1="0" x2="0" y2="1"><stop offset="0" stop-color="#f0847c"></stop><stop offset="1" stop-color="#c0392f"></stop></linearGradient>
    <linearGradient id="aiBlue" x1="0" y1="0" x2="0" y2="1"><stop offset="0" stop-color="#a8cbe8"></stop><stop offset="1" stop-color="#6b9cc4"></stop></linearGradient>
    <pattern id="aiGrid" width="64" height="64" patternUnits="userSpaceOnUse"><path d="M64 0H0V64" fill="none" stroke="rgba(255,255,255,.055)" stroke-width="2"></path></pattern>
    <clipPath id="aiHead"><circle cx="256" cy="178" r="118"></circle></clipPath>
    <clipPath id="aiGlobe"><circle cx="256" cy="242" r="82"></circle></clipPath>
  </defs>
  <rect x="16" y="16" width="480" height="480" rx="108" fill="#17191d"></rect>
  <rect x="16" y="16" width="480" height="480" rx="108" fill="url(#aiGrid)"></rect>
  <g transform="translate(6 0) rotate(4 256 264)">
    <rect x="148" y="132" width="216" height="276" rx="4" fill="#ffffff" stroke="#d5d0c6" stroke-width="2"></rect>
    <rect x="162" y="146" width="188" height="206" fill="#22303c"></rect>
    <circle cx="256" cy="242" r="82" fill="url(#aiBlue)"></circle>
    <g clip-path="url(#aiGlobe)" fill="#6f9e58">
      <path d="M194 208 q28 -20 60 -13 q20 6 13 25 q-10 19 -38 15 q-32 -4 -35 -27 Z"></path>
      <path d="M262 260 q32 -9 57 6 q17 11 6 29 q-14 19 -42 9 q-28 -9 -21 -44 Z"></path>
      <path d="M199 284 q17 -4 24 9 q7 12 -6 22 q-15 11 -26 1 q-10 -11 8 -32 Z"></path>
    </g>
    <circle cx="256" cy="242" r="82" fill="none" stroke="#39506a" stroke-width="3"></circle>
    <ellipse cx="224" cy="198" rx="27" ry="15" fill="rgba(255,255,255,.38)" transform="rotate(-20 224 198)"></ellipse>
    <rect x="176" y="374" width="128" height="10" rx="4" fill="#8b94a1"></rect>
  </g>
  <g transform="rotate(-16 216 196)">
    <ellipse cx="226" cy="202" rx="28" ry="8" fill="rgba(0,0,0,.2)"></ellipse>
    <g transform="translate(216 196) scale(.38) translate(-256 -424)">
      <path d="M138 178 A118 118 0 1 1 374 178 C374 290 300 332 264 414 C258 434 250 434 244 414 C212 332 138 290 138 178 Z" fill="url(#aiRed)" stroke="#8f2f27" stroke-width="6"></path>
      <g clip-path="url(#aiHead)" fill="none" stroke="#9c2f27" stroke-width="7">
        <ellipse cx="256" cy="178" rx="44" ry="116"></ellipse>
        <ellipse cx="256" cy="178" rx="88" ry="116"></ellipse>
        <path d="M138 178 H374"></path>
        <path d="M152 124 H360 M152 232 H360" stroke-width="5.5"></path>
      </g>
      <ellipse cx="210" cy="114" rx="40" ry="20" fill="rgba(255,255,255,.42)" transform="rotate(-20 210 114)"></ellipse>
    </g>
  </g>
</svg>